<svg xmlns="http://www.w3.org/2000/svg" viewBox="0 0 900 520" role="img" aria-labelledby="title desc">
  <title id="title">Mobile ticket update placeholder</title>
  <desc id="desc">Replace this file with your second update photo.</desc>
  <rect width="900" height="520" fill="#f0fbf7"/>
  <circle cx="250" cy="150" r="78" fill="#bdf2d3"/>
  <circle cx="730" cy="360" r="112" fill="#d6f6e4"/>
  <rect x="330" y="70" width="240" height="380" rx="38" fill="#0b3a75"/>
  <rect x="354" y="112" width="192" height="288" rx="18" fill="#ffffff"/>
  <rect x="386" y="145" width="128" height="18" rx="9" fill="#4189dd"/>
  <rect x="386" y="188" width="128" height="74" rx="12" fill="#eaf3ff"/>
  <rect x="396" y="198" width="44" height="44" rx="10" fill="#4189dd"/>
  <rect x="454" y="204" width="50" height="8" rx="4" fill="#0b3a75"/>
  <rect x="454" y="224" width="36" height="8" rx="4" fill="#94a3b8"/>
  <rect x="392" y="292" width="116" height="74" rx="12" fill="#f8fafc" stroke="#cbd5e1" stroke-width="4"/>
  <path d="M414 312h20v20h-20zM462 312h22v20h-22zM414 342h22v12h-22zM452 342h32v12h-32z" fill="#0b3a75"/>
  <text x="64" y="60" font-family="Arial, Helvetica, sans-serif" font-size="24" font-weight="800" fill="#15803d">TECHNOLOGY</text>
  <text x="450" y="488" text-anchor="middle" font-family="Arial, Helvetica, sans-serif" font-size="22" font-weight="700" fill="#406078">Add Update Image Here</text>
</svg>
